<?xml version="1.0" encoding="UTF-8"?>
<svg xmlns="http://www.w3.org/2000/svg" xmlns:xlink="http://www.w3.org/1999/xlink" width="237.8pt" height="179.9pt" viewBox="0 0 237.8 179.9" version="1.1">
<defs>
<clipPath id="clip1">
  <path d="M 11 3 L 237.800781 3 L 237.800781 179.898438 L 11 179.898438 Z M 11 3 "/>
</clipPath>
<clipPath id="clip2">
  <path d="M 10 2 L 237.800781 2 L 237.800781 179.898438 L 10 179.898438 Z M 10 2 "/>
</clipPath>
</defs>
<g id="surface1">
<g clip-path="url(#clip1)" clip-rule="nonzero">
<path style=" stroke:none;fill-rule:evenodd;fill:rgb(6.272888%,16.479492%,51.367188%);fill-opacity:1;" d="M 11.640625 3.71875 C 11.640625 3.71875 92.761719 -0.00390625 128.402344 18.476563 C 128.402344 18.476563 120.722656 41.757813 144.242188 46.921875 L 154.679688 46.921875 C 154.679688 46.921875 167.519531 49.679688 174.359375 53.519531 L 174.359375 51.117188 C 174.359375 51.117188 176.28125 54.960938 182.28125 56.757813 L 181.800781 53.636719 C 181.800781 53.636719 187.082031 59.757813 190.679688 61.078125 L 189.960938 56.878906 C 189.960938 56.878906 196.441406 63.839844 197.882813 64.679688 L 202.320313 64.4375 C 202.320313 64.4375 205.320313 69.003906 207.242188 71.878906 C 207.242188 71.878906 209.882813 74.699219 208.203125 75.003906 C 208.203125 75.003906 207.421875 75.058594 208.441406 75.898438 C 208.441406 75.898438 213.179688 81.238281 219.839844 81.960938 C 219.839844 81.960938 213.960938 85.976563 213.542969 87.003906 C 213.542969 87.003906 207.78125 80.21875 200.28125 76.976563 C 200.28125 76.976563 194.222656 74.578125 194.042969 71.757813 L 193.921875 68.398438 C 193.921875 68.398438 169.800781 56.519531 156.902344 53.996094 C 156.902344 53.996094 146.28125 52.617188 140.882813 54.660156 C 140.882813 54.660156 121.960938 60.4375 121.722656 82.039063 C 121.722656 82.039063 121.882813 105.476563 146.28125 108.277344 C 146.28125 108.277344 160.761719 108.996094 164.359375 109.15625 C 164.359375 109.15625 227.761719 110.519531 237.722656 153.117188 C 237.722656 153.117188 228.480469 124.4375 191.042969 118.558594 C 191.042969 118.558594 227.042969 142.082031 227.042969 179.878906 C 227.042969 179.878906 218.761719 119.398438 164.042969 115.4375 C 164.042969 115.4375 149.882813 115.203125 146.042969 115.082031 C 146.042969 115.082031 117.839844 114.117188 114.960938 86.160156 C 114.960938 86.160156 112.320313 59.757813 133.5625 50.519531 C 133.5625 50.519531 124.5625 32.15625 123.722656 22.316406 C 123.722656 22.316406 97.5625 7.316406 11.640625 3.71875 Z M 11.640625 3.71875 "/>
</g>
<g clip-path="url(#clip2)" clip-rule="nonzero">
<path style="fill:none;stroke-width:2.16;stroke-linecap:butt;stroke-linejoin:miter;stroke:rgb(6.272888%,16.479492%,51.367188%);stroke-opacity:1;stroke-miterlimit:4;" d="M 116.40625 1761.8125 C 116.40625 1761.8125 927.617188 1799.039063 1284.023438 1614.234375 C 1284.023438 1614.234375 1207.226563 1381.421875 1442.421875 1329.78125 L 1546.796875 1329.78125 C 1546.796875 1329.78125 1675.195313 1302.203125 1743.59375 1263.804688 L 1743.59375 1287.828125 C 1743.59375 1287.828125 1762.8125 1249.390625 1822.8125 1231.421875 L 1818.007813 1262.632813 C 1818.007813 1262.632813 1870.820313 1201.421875 1906.796875 1188.21875 L 1899.609375 1230.210938 C 1899.609375 1230.210938 1964.414063 1160.601563 1978.828125 1152.203125 L 2023.203125 1154.625 C 2023.203125 1154.625 2053.203125 1108.960938 2072.421875 1080.210938 C 2072.421875 1080.210938 2098.828125 1052.007813 2082.03125 1048.960938 C 2082.03125 1048.960938 2074.21875 1048.414063 2084.414063 1040.015625 C 2084.414063 1040.015625 2131.796875 986.617188 2198.398438 979.390625 C 2198.398438 979.390625 2139.609375 939.234375 2135.429688 928.960938 C 2135.429688 928.960938 2077.8125 996.8125 2002.8125 1029.234375 C 2002.8125 1029.234375 1942.226563 1053.21875 1940.429688 1081.421875 L 1939.21875 1115.015625 C 1939.21875 1115.015625 1698.007813 1233.804688 1569.023438 1259.039063 C 1569.023438 1259.039063 1462.8125 1272.828125 1408.828125 1252.398438 C 1408.828125 1252.398438 1219.609375 1194.625 1217.226563 978.609375 C 1217.226563 978.609375 1218.828125 744.234375 1462.8125 716.226563 C 1462.8125 716.226563 1607.617188 709.039063 1643.59375 707.4375 C 1643.59375 707.4375 2277.617188 693.804688 2377.226563 267.828125 C 2377.226563 267.828125 2284.804688 554.625 1910.429688 613.414063 C 1910.429688 613.414063 2270.429688 378.179688 2270.429688 0.210938 C 2270.429688 0.210938 2187.617188 605.015625 1640.429688 644.625 C 1640.429688 644.625 1498.828125 646.96875 1460.429688 648.179688 C 1460.429688 648.179688 1178.398438 657.828125 1149.609375 937.398438 C 1149.609375 937.398438 1123.203125 1201.421875 1335.625 1293.804688 C 1335.625 1293.804688 1245.625 1477.4375 1237.226563 1575.835938 C 1237.226563 1575.835938 975.625 1725.835938 116.40625 1761.8125 Z M 116.40625 1761.8125 " transform="matrix(0.1,0,0,-0.1,0,179.9)"/>
</g>
<path style="fill-rule:evenodd;fill:rgb(6.272888%,16.479492%,51.367188%);fill-opacity:1;stroke-width:2.16;stroke-linecap:butt;stroke-linejoin:miter;stroke:rgb(6.272888%,16.479492%,51.367188%);stroke-opacity:1;stroke-miterlimit:4;" d="M 1.210938 1447.4375 C 1.210938 1447.4375 597.617188 1589.039063 1227.617188 1558.960938 L 1238.398438 1515.835938 C 1238.398438 1515.835938 682.8125 1560.210938 1.210938 1447.4375 Z M 1.210938 1447.4375 " transform="matrix(0.1,0,0,-0.1,0,179.9)"/>
<path style="fill-rule:evenodd;fill:rgb(6.272888%,16.479492%,51.367188%);fill-opacity:1;stroke-width:2.16;stroke-linecap:butt;stroke-linejoin:miter;stroke:rgb(6.272888%,16.479492%,51.367188%);stroke-opacity:1;stroke-miterlimit:4;" d="M 1258.828125 1436.617188 L 1244.414063 1483.414063 C 1244.414063 1483.414063 735.625 1454.625 186.015625 1113.804688 C 186.015625 1113.804688 759.609375 1436.617188 1258.828125 1436.617188 Z M 1258.828125 1436.617188 " transform="matrix(0.1,0,0,-0.1,0,179.9)"/>
<path style="fill-rule:evenodd;fill:rgb(100%,100%,100%);fill-opacity:1;stroke-width:2.16;stroke-linecap:butt;stroke-linejoin:miter;stroke:rgb(100%,100%,100%);stroke-opacity:1;stroke-miterlimit:4;" d="M 2032.226563 1096.421875 L 2031.601563 1083.21875 C 2031.601563 1083.21875 2044.21875 1068.804688 2057.421875 1063.960938 C 2057.421875 1063.960938 2038.203125 1093.414063 2032.226563 1096.421875 Z M 2032.226563 1096.421875 " transform="matrix(0.1,0,0,-0.1,0,179.9)"/>
</g>
</svg>
